#Comment line ignore any data following # character 
#Hierarchical Translation and Rotation (.htr) file 
[Header]	
#Header keywords are followed by a single value 
FileType HTR		#Single word string
DataType HTRS		#Translation followed by rotation and scale data
FileVersion 1		#integer
NumSegments 64		#integer
NumFrames 3		#integer
DataFrameRate 30		#integer, data frame rate in this file
EulerRotationOrder ZYX
CalibrationUnits mm
RotationUnits Degrees
GlobalAxisofGravity Y
BoneLengthAxis Y
ScaleFactor 1.00
[SegmentNames&Hierarchy]
#CHILD	PARENT
Pinger_Root GLOBAL
Pelvis Pinger_Root
L_Hip Pelvis
R_Hip Pelvis
Rear_Leg01 Pelvis
Spine1 Pelvis
L_Leg01 L_Hip
L_Leg02 L_Leg01
L_Leg03 L_Leg02
L_Foot L_Leg03
L_Toe1_01 L_Foot
L_Toe2_01 L_Foot
L_Toe3_01 L_Foot
planeAlignerLeft L_Foot
L_Toe1_02 L_Toe1_01
L_Toe1_03 L_Toe1_02
L_Toe2_02 L_Toe2_01
L_Toe2_03 L_Toe2_02
L_Toe3_02 L_Toe3_01
L_Toe3_03 L_Toe3_02
planeLockWeightLeft planeAlignerLeft
R_Leg01 R_Hip
R_Leg02 R_Leg01
R_Leg03 R_Leg02
R_Foot R_Leg03
planeAlignerRight R_Foot
R_Toe1_01 R_Foot
R_Toe2_01 R_Foot
R_Toe3_01 R_Foot
planeLockWeightRight planeAlignerRight
R_Toe1_02 R_Toe1_01
R_Toe1_03 R_Toe1_02
R_Toe2_02 R_Toe2_01
R_Toe2_03 R_Toe2_02
R_Toe3_02 R_Toe3_01
R_Toe3_03 R_Toe3_02
Rear_Leg02 Rear_Leg01
Rear_Leg03 Rear_Leg02
Rear_Leg04 Rear_Leg03
Rear_Foot Rear_Leg04
planeAlignerCenter Rear_Foot
Rear_Toe1_01 Rear_Foot
Rear_Toe2_01 Rear_Foot
Rear_Toe3_01 Rear_Foot
planeLockWeightCenter planeAlignerCenter
Rear_Toe1_02 Rear_Toe1_01
Rear_Toe1_03 Rear_Toe1_02
Rear_Toe2_02 Rear_Toe2_01
Rear_Toe2_03 Rear_Toe2_02
Rear_Toe3_02 Rear_Toe3_01
Rear_Toe3_03 Rear_Toe3_02
Back_Bone Spine1
Head Spine1
Motor_Bone Back_Bone
Ping_Mechanism Back_Bone
BN_LookIK Head
bottomMouth Head
L_Mouth01 Head
L_mouthFront Head
mouthGun Head
R_Mouth01 Head
R_mouthFront Head
TopMouth Head
weapon_bone Head
[BasePosition]
#SegmentName Tx, Ty, Tz, Rx, Ry, Rz, BoneLength
Pinger_Root 0.000000 0.000000 0.000000 -90.000000 0.000000 0.000000 10.000000 
Pelvis 0.000000 0.000000 0.000000 0.000000 0.000000 0.000000 10.000000 
L_Hip 0.000000 0.000000 0.000000 0.000000 0.000000 0.000000 10.000000 
R_Hip 0.000000 0.000000 0.000000 0.000000 0.000000 0.000000 10.000000 
Rear_Leg01 0.000000 0.000000 0.000000 0.000000 0.000000 0.000000 10.000000 
Spine1 0.000000 0.000000 0.000000 0.000000 0.000000 0.000000 10.000000 
L_Leg01 0.000000 0.000000 0.000000 0.000000 0.000000 0.000000 10.000000 
L_Leg02 0.000000 0.000000 0.000000 0.000000 0.000000 0.000000 10.000000 
L_Leg03 0.000000 0.000000 0.000000 0.000000 0.000000 0.000000 10.000000 
L_Foot 0.000000 0.000000 0.000000 0.000000 0.000000 0.000000 10.000000 
L_Toe1_01 0.000000 0.000000 0.000000 0.000000 0.000000 0.000000 10.000000 
L_Toe2_01 0.000000 0.000000 0.000000 0.000000 0.000000 0.000000 10.000000 
L_Toe3_01 0.000000 0.000000 0.000000 0.000000 0.000000 0.000000 10.000000 
planeAlignerLeft 0.000000 0.000000 0.000000 0.000000 0.000000 0.000000 10.000000 
L_Toe1_02 0.000000 0.000000 0.000000 0.000000 0.000000 0.000000 10.000000 
L_Toe1_03 0.000000 0.000000 0.000000 0.000000 0.000000 0.000000 10.000000 
L_Toe2_02 0.000000 0.000000 0.000000 0.000000 0.000000 0.000000 10.000000 
L_Toe2_03 0.000000 0.000000 0.000000 0.000000 0.000000 0.000000 10.000000 
L_Toe3_02 0.000000 0.000000 0.000000 0.000000 0.000000 0.000000 10.000000 
L_Toe3_03 0.000000 0.000000 0.000000 0.000000 0.000000 0.000000 10.000000 
planeLockWeightLeft 0.000000 0.000000 0.000000 0.000000 0.000000 0.000000 10.000000 
R_Leg01 0.000000 0.000000 0.000000 0.000000 0.000000 0.000000 10.000000 
R_Leg02 0.000000 0.000000 0.000000 0.000000 0.000000 0.000000 10.000000 
R_Leg03 0.000000 0.000000 0.000000 0.000000 0.000000 0.000000 10.000000 
R_Foot 0.000000 0.000000 0.000000 0.000000 0.000000 0.000000 10.000000 
planeAlignerRight 0.000000 0.000000 0.000000 0.000000 0.000000 0.000000 10.000000 
R_Toe1_01 0.000000 0.000000 0.000000 0.000000 0.000000 0.000000 10.000000 
R_Toe2_01 0.000000 0.000000 0.000000 0.000000 0.000000 0.000000 10.000000 
R_Toe3_01 0.000000 0.000000 0.000000 0.000000 0.000000 0.000000 10.000000 
planeLockWeightRight 0.000000 0.000000 0.000000 0.000000 0.000000 0.000000 10.000000 
R_Toe1_02 0.000000 0.000000 0.000000 0.000000 0.000000 0.000000 10.000000 
R_Toe1_03 0.000000 0.000000 0.000000 0.000000 0.000000 0.000000 10.000000 
R_Toe2_02 0.000000 0.000000 0.000000 0.000000 0.000000 0.000000 10.000000 
R_Toe2_03 0.000000 0.000000 0.000000 0.000000 0.000000 0.000000 10.000000 
R_Toe3_02 0.000000 0.000000 0.000000 0.000000 0.000000 0.000000 10.000000 
R_Toe3_03 0.000000 0.000000 0.000000 0.000000 0.000000 0.000000 10.000000 
Rear_Leg02 0.000000 0.000000 0.000000 0.000000 0.000000 0.000000 10.000000 
Rear_Leg03 0.000000 0.000000 0.000000 0.000000 0.000000 0.000000 10.000000 
Rear_Leg04 0.000000 0.000000 0.000000 0.000000 0.000000 0.000000 10.000000 
Rear_Foot 0.000000 0.000000 0.000000 0.000000 0.000000 0.000000 10.000000 
planeAlignerCenter 0.000000 0.000000 0.000000 0.000000 0.000000 0.000000 10.000000 
Rear_Toe1_01 0.000000 0.000000 0.000000 0.000000 0.000000 0.000000 10.000000 
Rear_Toe2_01 0.000000 0.000000 0.000000 0.000000 0.000000 0.000000 10.000000 
Rear_Toe3_01 0.000000 0.000000 0.000000 0.000000 0.000000 0.000000 10.000000 
planeLockWeightCenter 0.000000 0.000000 0.000000 0.000000 0.000000 0.000000 10.000000 
Rear_Toe1_02 0.000000 0.000000 0.000000 0.000000 0.000000 0.000000 10.000000 
Rear_Toe1_03 0.000000 0.000000 0.000000 0.000000 0.000000 0.000000 10.000000 
Rear_Toe2_02 0.000000 0.000000 0.000000 0.000000 0.000000 0.000000 10.000000 
Rear_Toe2_03 0.000000 0.000000 0.000000 0.000000 0.000000 0.000000 10.000000 
Rear_Toe3_02 0.000000 0.000000 0.000000 0.000000 0.000000 0.000000 10.000000 
Rear_Toe3_03 0.000000 0.000000 0.000000 0.000000 0.000000 0.000000 10.000000 
Back_Bone 0.000000 0.000000 0.000000 0.000000 0.000000 0.000000 10.000000 
Head 0.000000 0.000000 0.000000 0.000000 0.000000 0.000000 10.000000 
Motor_Bone 0.000000 0.000000 0.000000 0.000000 0.000000 0.000000 10.000000 
Ping_Mechanism 0.000000 0.000000 0.000000 0.000000 0.000000 0.000000 10.000000 
BN_LookIK 0.000000 0.000000 0.000000 0.000000 0.000000 0.000000 10.000000 
bottomMouth 0.000000 0.000000 0.000000 0.000000 0.000000 0.000000 10.000000 
L_Mouth01 0.000000 0.000000 0.000000 0.000000 0.000000 0.000000 10.000000 
L_mouthFront 0.000000 0.000000 0.000000 0.000000 0.000000 0.000000 10.000000 
mouthGun 0.000000 0.000000 0.000000 0.000000 0.000000 0.000000 10.000000 
R_Mouth01 0.000000 0.000000 0.000000 0.000000 0.000000 0.000000 10.000000 
R_mouthFront 0.000000 0.000000 0.000000 0.000000 0.000000 0.000000 10.000000 
TopMouth 0.000000 0.000000 0.000000 0.000000 0.000000 0.000000 10.000000 
weapon_bone 0.000000 0.000000 0.000000 0.000000 0.000000 0.000000 10.000000 
#Beginning of Data. Separated by tabs
#Fr	Tx	Ty	Tz	Rx	Ry	Rz	SF
[Pinger_Root]
11 1296.296631 0.000000 0.000000 -0.000075 -0.000000 -0.000020 1296.296631
12 1425.926270 0.000000 0.000000 -0.000075 -0.000000 -0.000020 1425.926270
13 1555.555786 0.000000 0.000000 -0.000075 -0.000000 -0.000020 1555.555908
[Pelvis]
11 663.483398 325.222198 5286.961914 79.047668 -78.115967 -128.972076 5338.347168
12 669.872498 319.164734 5273.265625 72.416809 -79.729958 -121.227104 5325.216309
13 664.150269 307.915894 5237.098145 65.949944 -80.223961 -113.397751 5288.015137
[L_Hip]
11 5.766392 125.831482 872.656799 -178.250168 -81.786369 87.376007 881.701050
12 5.766392 125.831482 872.656799 -178.250168 -81.786369 87.376007 881.701050
13 5.766392 125.831482 872.656799 -178.250168 -81.786369 87.376007 881.701050
[R_Hip]
11 5.765438 125.836372 -872.654907 -1.748770 81.786041 87.376961 881.699829
12 5.765438 125.836372 -872.654907 -1.748770 81.786041 87.376961 881.699829
13 5.765438 125.836372 -872.654907 -1.748770 81.786041 87.376961 881.699829
[Rear_Leg01]
11 -192.298416 -925.602966 -0.001907 171.176147 4.962624 -178.537766 945.367432
12 -192.298416 -925.602966 -0.001907 171.899231 2.959097 169.617889 945.367432
13 -192.298416 -925.602966 -0.001907 173.170227 1.907544 161.541489 945.367432
[Spine1]
11 290.604584 5.007505 0.000477 37.819206 -22.037584 37.018150 290.647736
12 290.604584 5.007505 0.000477 36.221245 -22.373137 35.775070 290.647736
13 290.604584 5.007505 0.000477 34.374088 -22.422827 35.392826 290.647736
[L_Leg01]
11 761.932007 -0.002384 -0.069261 71.486588 -13.936068 -73.039902 761.932068
12 761.932007 -0.002384 -0.069261 72.413742 -14.542224 -73.410065 761.932068
13 761.932007 -0.002384 -0.069261 73.638229 -14.437808 -73.927292 761.932068
[L_Leg02]
11 1441.140503 -0.000954 -0.000715 -1.305424 0.798574 -94.977997 1441.140503
12 1441.140503 -0.000954 -0.000715 -1.306849 0.801831 -93.737122 1441.140503
13 1441.140503 -0.000954 -0.000715 -1.324708 0.785403 -93.130714 1441.140503
[L_Leg03]
11 1686.963989 -0.000715 -0.000954 0.090426 -0.013715 85.207542 1686.963989
12 1686.963989 -0.000715 -0.000954 0.090444 -0.013598 85.059807 1686.963989
13 1686.963989 -0.000715 -0.000954 0.090366 -0.014108 85.705750 1686.963989
[L_Foot]
11 3041.570068 -30.715107 11.297464 -13.850466 16.897100 64.197540 3041.746094
12 3041.570068 -30.715107 11.297464 -15.114122 16.911789 64.072685 3041.746094
13 3041.570068 -30.715107 11.297464 -16.327608 16.721844 63.565907 3041.746094
[L_Toe1_01]
11 -188.216690 -224.732346 -21.137953 89.321892 -1.870080 -162.483978 293.899567
12 -188.216690 -224.732346 -21.137953 89.302483 -1.855433 -161.674225 293.899567
13 -188.216690 -224.732346 -21.137953 89.283257 -1.840511 -160.864487 293.899567
[L_Toe2_01]
11 200.746536 -219.926590 148.838394 -77.646446 -13.444320 -44.894249 332.896027
12 200.746536 -219.926590 148.838394 -77.481346 -13.352616 -45.596390 332.896027
13 200.746536 -219.926590 148.838394 -77.317459 -13.258946 -46.297977 332.896027
[L_Toe3_01]
11 188.832520 -219.859131 -191.078659 -106.106750 16.724405 -46.813686 347.140900
12 188.832520 -219.859131 -191.078659 -106.313545 16.599476 -47.524700 347.140900
13 188.832520 -219.859131 -191.078659 -106.518547 16.472092 -48.234753 347.140900
[planeAlignerLeft]
11 -49.328621 -624.824646 0.025368 0.000000 -90.000000 -90.001900 626.768799
12 -52.400669 -633.396057 0.024090 0.000000 -90.000000 -90.001900 635.559875
13 -55.472725 -641.967346 0.022812 0.000000 -90.000000 -90.001900 644.359619
[L_Toe1_02]
11 413.761139 0.000477 0.000000 0.001400 -23.953726 0.001400 413.761139
12 413.761139 0.000477 0.000000 0.001398 -24.174086 0.001398 413.761139
13 413.761139 0.000477 0.000000 0.001396 -24.394444 0.001396 413.761139
[L_Toe1_03]
11 464.317322 0.000358 -0.000089 0.008443 74.016258 0.008443 464.317322
12 464.317322 0.000358 -0.000089 0.007904 72.921776 0.007904 464.317322
13 464.317322 0.000358 -0.000089 0.007278 71.438454 0.007278 464.317322
[L_Toe2_02]
11 342.235809 -0.000477 0.000238 0.001179 -78.754898 0.001179 342.235809
12 342.235809 -0.000477 0.000238 0.001179 -78.594139 0.001179 342.235809
13 342.235809 -0.000477 0.000238 0.001180 -78.433380 0.001180 342.235809
[L_Toe2_03]
11 420.210846 -0.000715 0.000000 -179.997986 72.547157 -179.994446 420.210846
12 420.210846 -0.000715 0.000000 -179.997971 72.583939 -179.994431 420.210846
13 420.210846 -0.000715 0.000000 -179.997818 73.261856 -179.994278 420.210846
[L_Toe3_02]
11 329.270111 0.000954 0.000000 0.001176 -82.141876 0.001176 329.270111
12 329.270111 0.000954 0.000000 0.001176 -82.195259 0.001176 329.270111
13 329.270111 0.000954 0.000000 0.001176 -81.989990 0.001176 329.270111
[L_Toe3_03]
11 439.137451 -0.001907 0.000954 -179.998306 70.887352 -179.994766 439.137451
12 439.137451 -0.001907 0.000954 -179.998306 70.984467 -179.994751 439.137451
13 439.137451 -0.001907 0.000954 -179.998184 71.624863 -179.994629 439.137451
[planeLockWeightLeft]
11 999.999146 0.098079 0.076242 -0.011826 -0.004376 0.005620 999.999146
12 999.999146 0.098091 0.076239 -0.011826 -0.004376 0.005620 999.999146
13 999.999146 0.098102 0.076235 -0.011826 -0.004376 0.005620 999.999146
[R_Leg01]
11 761.455627 -0.001907 -0.000358 96.848259 20.339354 100.365807 761.455688
12 761.455627 -0.001907 -0.000358 95.760399 7.203380 98.730438 761.455688
13 761.455627 -0.001907 -0.000358 95.241638 1.138314 98.131355 761.455688
[R_Leg02]
11 1441.140625 0.000000 -0.000238 0.174104 -0.019924 -84.559822 1441.140625
12 1441.140625 0.000000 -0.000238 0.141344 -0.057937 -98.954781 1441.140625
13 1441.140625 0.000000 -0.000238 0.135962 -0.076554 -107.898018 1441.140625
[R_Leg03]
11 1686.963989 0.000954 0.001431 -0.136160 0.005099 73.587425 1686.963989
12 1686.963989 0.000954 0.001431 -0.136163 0.005003 73.507187 1686.963989
13 1686.963989 0.000954 0.001431 -0.125150 0.006469 76.638214 1686.963989
[R_Foot]
11 3041.560059 -30.531288 -11.204481 -4.132133 -24.943703 100.567245 3041.734131
12 3041.560059 -30.531288 -11.204481 -1.572685 -27.050745 97.422180 3041.734131
13 3041.560059 -30.531288 -11.204481 0.649969 -29.041534 93.317642 3041.734131
[planeAlignerRight]
11 -86.904877 -841.109558 18.285063 0.000000 -89.960434 -90.005180 845.784851
12 -111.467964 -840.265808 17.379072 0.000000 -89.960434 -90.005180 847.805298
13 -136.031052 -839.422119 16.473082 0.000000 -89.960434 -90.005180 850.532349
[R_Toe1_01]
11 -188.383347 -224.864899 21.052242 91.185371 0.732097 -143.693268 294.101532
12 -188.383347 -224.864899 21.052242 91.182381 0.722440 -143.184570 294.101532
13 -188.383347 -224.864899 21.052242 91.179298 0.712807 -142.675888 294.101532
[R_Toe2_01]
11 200.637817 -220.002121 -148.787384 -105.175156 8.886344 -60.997932 332.857574
12 200.637817 -220.002121 -148.787384 -105.267097 9.149894 -61.081749 332.857574
13 200.637817 -220.002121 -148.787384 -105.359505 9.413305 -61.166065 332.857574
[R_Toe3_01]
11 188.606735 -220.092957 191.126343 -69.582397 -12.830026 -63.467438 347.192566
12 188.606735 -220.092957 191.126343 -69.476120 -13.139932 -63.576984 347.192566
13 188.606735 -220.092957 191.126343 -69.369072 -13.449626 -63.687241 347.192566
[planeLockWeightRight]
11 647.999329 -0.000534 0.076180 -0.011823 -0.004379 -0.000027 647.999329
12 351.999481 -0.000534 0.076370 -0.011823 -0.004379 -0.000027 351.999512
13 103.999733 -0.000458 0.076447 -0.011823 -0.004379 -0.000027 103.999763
[R_Toe1_02]
11 413.762085 0.000477 -0.000119 0.001388 -25.470104 0.001388 413.762085
12 413.762085 0.000477 -0.000119 0.001394 -24.735418 0.001394 413.762085
13 413.762085 0.000477 -0.000119 0.001404 -23.385267 0.001404 413.762085
[R_Toe1_03]
11 464.317810 0.000000 0.001088 0.002996 43.875732 0.002996 464.317810
12 464.317810 0.000000 0.001088 0.000594 39.252075 -0.003276 464.317810
13 464.317810 0.000000 0.001088 0.000767 33.617931 -0.003200 464.317810
[R_Toe2_02]
11 342.234741 -0.000954 0.000238 -0.000581 -73.025284 -0.000581 342.234741
12 342.234741 -0.000954 0.000238 -0.001463 -73.868385 -0.001463 342.234741
13 342.234741 -0.000954 0.000238 -0.002344 -74.711395 -0.002344 342.234741
[R_Toe2_03]
11 420.210846 0.000715 -0.000268 0.012465 87.038452 0.010716 420.210846
12 420.210846 0.000715 -0.000268 0.000000 89.439072 -0.003502 420.210846
13 420.210846 0.000715 -0.000268 -179.968384 87.794418 -179.971878 420.210846
[R_Toe3_02]
11 329.270355 -0.000477 -0.000954 0.001182 -76.500610 0.001182 329.270355
12 329.270355 -0.000477 -0.000954 0.001181 -77.283127 0.001181 329.270355
13 329.270355 -0.000477 -0.000954 0.001180 -78.065582 0.001180 329.270355
[R_Toe3_03]
11 439.137939 0.000238 0.001431 -0.035865 88.069427 -0.032368 439.137939
12 439.137939 0.000238 0.001431 0.000000 89.465874 0.003503 439.137939
13 439.137939 0.000238 0.001431 -179.979797 87.001015 -179.976288 439.137939
[Rear_Leg02]
11 1162.777710 -0.029802 0.005960 10.665815 -13.672071 -129.272079 1162.777710
12 1162.777710 -0.029802 0.005960 8.340149 -12.433001 -139.706711 1162.777710
13 1162.777710 -0.029802 0.005960 6.445678 -10.082753 -149.587875 1162.777710
[Rear_Leg03]
11 607.192505 -0.013351 -0.073195 0.010256 -0.005566 73.326988 607.192505
12 607.192505 -0.013351 -0.073195 0.010315 -0.005455 72.093857 607.192505
13 607.192505 -0.013351 -0.073195 0.010333 -0.005421 71.721176 607.192505
[Rear_Leg04]
11 995.874512 -0.020504 -0.011921 -0.041842 -0.014774 78.465218 995.874573
12 995.874512 -0.020504 -0.011921 -0.041437 -0.015874 75.439102 995.874573
13 995.874512 -0.020504 -0.011921 -0.041307 -0.016209 74.510406 995.874573
[Rear_Foot]
11 3096.176270 -0.067472 -0.041425 -68.388321 71.572609 78.791489 3096.176270
12 3096.176270 -0.067472 -0.041425 -76.295639 74.614792 75.276672 3096.176270
13 3096.176270 -0.067472 -0.041425 -85.024315 77.940918 70.420563 3096.176270
[planeAlignerCenter]
11 0.620270 89.839020 -693.852600 0.000009 0.000003 -179.999985 699.644775
12 0.619507 129.845398 -650.064270 0.000009 0.000003 -179.999985 662.905579
13 0.619202 114.764328 -651.506226 0.000009 0.000003 -179.999985 661.537292
[Rear_Toe1_01]
11 0.653352 83.966492 -371.173737 0.054865 21.639202 90.032394 380.553192
12 0.653352 83.966492 -371.173737 0.061212 20.344570 90.030823 380.553192
13 0.653352 83.966492 -371.173737 0.060691 19.790548 90.028999 380.553192
[Rear_Toe2_01]
11 178.200760 -294.826019 -362.060547 1.108998 45.924828 -69.493607 499.765686
12 178.200760 -294.826019 -362.060547 1.548913 42.209370 -68.378098 499.765686
13 178.200760 -294.826019 -362.060547 1.329546 42.485737 -68.834045 499.765686
[Rear_Toe3_01]
11 -153.359680 -308.780914 -362.060852 -1.373849 45.935478 -113.022324 499.952881
12 -153.359680 -308.780914 -362.060852 -1.857188 42.242470 -114.265114 499.952881
13 -153.359680 -308.780914 -362.060852 -1.608197 42.512791 -113.750908 499.952881
[planeLockWeightCenter]
11 999.999695 0.000293 0.076133 -0.011814 -0.004373 -0.000015 999.999695
12 999.999756 0.000289 0.076146 -0.011814 -0.004373 -0.000015 999.999756
13 999.999756 0.000285 0.076159 -0.011814 -0.004373 -0.000015 999.999756
[Rear_Toe1_02]
11 379.707825 0.194073 0.000477 -0.000767 -33.624729 0.000838 379.707855
12 379.707825 0.194073 0.000477 -0.000767 -33.624729 0.000838 379.707855
13 379.707825 0.194073 0.000477 -0.000767 -33.624729 0.000838 379.707855
[Rear_Toe1_03]
11 500.129700 0.165701 0.000119 0.007016 70.741676 0.007016 500.129761
12 500.129700 0.165701 0.000119 -0.004504 65.558540 -0.000926 500.129761
13 500.129700 0.165701 0.000119 -0.004892 68.722397 -0.001334 500.129761
[Rear_Toe2_02]
11 340.494507 0.000238 -0.000954 -0.002324 -86.336815 -0.002324 340.494507
12 340.494507 0.000238 -0.000954 0.001174 -89.337074 0.001174 340.494507
13 340.494507 0.000238 -0.000954 0.001173 -88.650558 0.001174 340.494507
[Rear_Toe2_03]
11 433.103577 0.000000 0.000238 179.989059 77.675629 179.989059 433.103546
12 433.103577 0.000000 0.000238 -179.995102 68.728386 -179.998672 433.103546
13 433.103577 0.000000 0.000238 -179.994766 70.935913 -179.998306 433.103546
[Rear_Toe3_02]
11 340.494141 -0.000358 -0.000477 0.001174 -86.235168 0.001174 340.494171
12 340.494141 -0.000358 -0.000477 0.001174 -89.239471 0.001174 340.494171
13 340.494141 -0.000358 -0.000477 0.001174 -88.546936 0.001174 340.494171
[Rear_Toe3_03]
11 433.103577 0.001431 -0.000238 -179.996277 77.955276 -179.992767 433.103546
12 433.103577 0.001431 -0.000238 -179.998611 69.100243 -179.995056 433.103546
13 433.103577 0.001431 -0.000238 -179.998245 71.270218 -179.994690 433.103546
[Back_Bone]
11 1312.175781 -701.934692 0.000954 -2.745125 -3.506787 -82.036652 1488.125488
12 1312.175781 -701.934692 0.000954 -2.553530 -3.578833 -81.561256 1488.125488
13 1312.175781 -701.934692 0.000954 -2.362533 -3.652460 -81.086090 1488.125488
[Head]
11 1406.159424 809.709290 0.001431 4.396977 -4.972855 -0.417245 1622.625488
12 1406.159424 809.709290 0.001431 4.552231 -5.292520 -0.094883 1622.625488
13 1406.159424 809.709290 0.001431 4.806724 -5.602575 1.084805 1622.625488
[Motor_Bone]
11 1158.364380 -417.834747 0.000477 -1.848089 -0.482797 -106.470413 1231.419434
12 1158.364380 -417.834747 0.000477 -1.733614 -0.303522 -106.290810 1231.419434
13 1158.364380 -417.834747 0.000477 -1.440879 0.000172 -105.983208 1231.419434
[Ping_Mechanism]
11 1177.985474 -394.747925 -27.345181 0.000103 -0.000053 82.120995 1242.667847
12 1180.460815 -398.566864 -17.350145 0.000103 -0.000053 82.120995 1246.051514
13 1180.711060 -399.161377 -10.220633 0.000103 -0.000053 82.120995 1246.399902
[BN_LookIK]
11 193.241119 1380.371704 -0.002861 0.000000 89.965736 -31.038179 1393.832153
12 193.241119 1380.371704 -0.002861 0.000000 89.965736 -31.038179 1393.832153
13 193.241119 1380.371704 -0.002861 0.000000 89.965736 -31.038179 1393.832153
[bottomMouth]
11 -435.092926 615.759399 -0.000954 -0.000022 0.000016 73.527184 753.966492
12 -435.092926 615.759399 -0.000954 -0.000022 0.000016 73.527184 753.966492
13 -435.092926 615.759399 -0.000954 -0.000022 0.000016 73.527184 753.966492
[L_Mouth01]
11 554.440979 7.658243 838.222046 150.204178 23.759130 109.605339 1005.027161
12 554.440979 7.658243 838.222046 150.204178 23.759130 109.605339 1005.027161
13 554.440979 7.658243 838.222046 150.204178 23.759130 109.605339 1005.027161
[L_mouthFront]
11 551.629089 934.514771 339.150421 0.000081 2.804060 79.119301 1136.941284
12 551.629089 934.514771 339.150421 0.000081 2.804060 79.119301 1136.941284
13 551.629089 934.514771 339.150421 0.000081 2.804060 79.119301 1136.941284
[mouthGun]
11 55.332661 1627.420898 0.000000 0.000023 0.000009 -11.038128 1628.361328
12 55.332661 1627.420898 0.000000 0.000023 0.000009 -11.038128 1628.361328
13 55.332661 1627.420898 0.000000 0.000023 0.000009 -11.038128 1628.361328
[R_Mouth01]
11 554.442383 7.659197 -838.223938 29.795891 -23.759109 109.605331 1005.029541
12 554.442383 7.659197 -838.223938 29.795891 -23.759109 109.605331 1005.029541
13 554.442383 7.659197 -838.223938 29.795891 -23.759109 109.605331 1005.029541
[R_mouthFront]
11 551.629089 934.514282 -339.151367 0.000029 -2.803930 79.119133 1136.941162
12 551.629089 934.514282 -339.151367 0.000029 -2.803930 79.119133 1136.941162
13 551.629089 934.514282 -339.151367 0.000029 -2.803930 79.119133 1136.941162
[TopMouth]
11 461.269867 -56.106091 -0.008583 -0.000059 -0.000268 92.025169 464.669525
12 461.269867 -56.106091 -0.008583 -0.000059 -0.000268 92.025169 464.669525
13 461.269867 -56.106091 -0.008583 -0.000059 -0.000268 92.025169 464.669525
[weapon_bone]
11 -987.239868 1448.372803 0.001431 0.000000 89.965736 -31.038221 1752.833740
12 -987.239868 1448.372803 0.001431 0.000000 89.965736 -31.038221 1752.833740
13 -987.239868 1448.372803 0.001431 0.000000 89.965736 -31.038221 1752.833740
